<svg xmlns="http://www.w3.org/2000/svg" version="1.1" xmlnsXlink="http://www.w3.org/1999/xlink" xmlnsSvgjs="http://svgjs.com/svgjs" width="1880" height="720" preserveAspectRatio="none" viewBox="0 0 1880 720">
    <g mask="url(&quot;#SvgjsMask2127&quot;)" fill="none">
        <rect width="1880" height="720" x="0" y="0" fill="url(#SvgjsLinearGradient2128)"></rect>
        <path d="M70 720L790 0L1300 0L580 720z" fill="url(#SvgjsLinearGradient2129)"></path>
        <path d="M423.59999999999997 720L1143.6 0L1524.6 0L804.5999999999999 720z" fill="url(#SvgjsLinearGradient2129)"></path>
        <path d="M884.1999999999999 720L1604.1999999999998 0L1841.1999999999998 0L1121.1999999999998 720z" fill="url(#SvgjsLinearGradient2129)"></path>
        <path d="M1814 720L1094 0L948.5 0L1668.5 720z" fill="url(#SvgjsLinearGradient2130)"></path>
        <path d="M1451.4 720L731.4000000000001 0L153.9000000000001 0L873.9000000000001 720z" fill="url(#SvgjsLinearGradient2130)"></path>
        <path d="M977.8000000000001 720L257.80000000000007 0L148.30000000000007 0L868.3000000000001 720z" fill="url(#SvgjsLinearGradient2130)"></path>
        <path d="M1400.663043043306 720L1880 240.663043043306L1880 720z" fill="url(#SvgjsLinearGradient2129)"></path>
        <path d="M0 720L479.336956956694 720L 0 240.663043043306z" fill="url(#SvgjsLinearGradient2130)"></path>
    </g>
    <defs>
        <mask id="SvgjsMask2127">
            <rect width="1880" height="720" fill="#ffffff"></rect>
        </mask>
        <linearGradient x1="84.57%" y1="140.28%" x2="15.43%" y2="-40.28%" gradientUnits="userSpaceOnUse" id="SvgjsLinearGradient2128">
            <stop stop-color="rgba(72, 44, 33, 1)" offset="0.22"></stop>
            <stop stop-color="rgba(167, 62, 43, 1)" offset="1"></stop>
        </linearGradient>
        <linearGradient x1="0%" y1="100%" x2="100%" y2="0%" id="SvgjsLinearGradient2129">
            <stop stop-color="rgba(208, 126, 14, 0.36)" offset="0"></stop>
            <stop stop-opacity="0" stop-color="rgba(208, 126, 14, 0.36)" offset="0.66"></stop>
        </linearGradient>
        <linearGradient x1="100%" y1="100%" x2="0%" y2="0%" id="SvgjsLinearGradient2130">
            <stop stop-color="rgba(208, 126, 14, 0.36)" offset="0"></stop>
            <stop stop-opacity="0" stop-color="rgba(208, 126, 14, 0.36)" offset="0.66"></stop>
        </linearGradient>
    </defs>
</svg>